<svg xmlns="http://www.w3.org/2000/svg" viewBox="0 0 100 100" fill="none" stroke="currentColor" stroke-width="2" stroke-linecap="round" stroke-linejoin="round">
    <rect x="0" y="0" width="100" height="100" rx="10" ry="10" fill="#FFFFFF" stroke="none"/>
    
    <line x1="50" y1="10" x2="50" y2="90"/>
    <line x1="15.36" y1="30" x2="84.64" y2="70"/>
    <line x1="15.36" y1="70" x2="84.64" y2="30"/>

    <line x1="50" y1="20" x2="40" y2="28"/>
    <line x1="50" y1="20" x2="60" y2="28"/>
    <line x1="50" y1="80" x2="40" y2="72"/>
    <line x1="50" y1="80" x2="60" y2="72"/>

    <line x1="71.96" y1="37.32" x2="75.36" y2="48.64"/>
    <line x1="71.96" y1="37.32" x2="68.56" y2="26"/>
    <line x1="28.04" y1="62.68" x2="24.64" y2="51.36"/>
    <line x1="28.04" y1="62.68" x2="31.44" y2="74"/>

    <line x1="28.04" y1="37.32" x2="24.64" y2="48.64"/>
    <line x1="28.04" y1="37.32" x2="31.44" y2="26"/>
    <line x1="71.96" y1="62.68" x2="75.36" y2="51.36"/>
    <line x1="71.96" y1="62.68" x2="68.56" y2="74"/>

    <circle cx="50" cy="50" r="4" fill="currentColor"/>
</svg>